# xmcd
#
# Track frame offsets: 
#        150
#        19342
#        40321
#        56442
#        74159
#        102783
#        118044
#        138434
#        154333
#        171191
#
# Disc length: 2437 seconds
#
# Revision: 1
# Processed by: cddbd v1.5.2PL0 Copyright (c) Steve Scherf et al.
# Submitted via: ExactAudioCopyFreeDBPlugin 1.0
#
DISCID=8f09830a
DTITLE=Bruce Carroll - Big World
DYEAR=2005
DGENRE=Christian
TTITLE0=Big World
TTITLE1=Everything I Need
TTITLE2=Ship Out Of Water
TTITLE3=I Don't Care What They Say
TTITLE4=The Story
TTITLE5=Jealousy
TTITLE6=Letters I Left Behind
TTITLE7=When We Fail Love
TTITLE8=Halfway House
TTITLE9=Shelter Me
EXTD=YEAR: 2005
EXTT0=
EXTT1=
EXTT2=
EXTT3=
EXTT4=
EXTT5=
EXTT6=
EXTT7=
EXTT8=
EXTT9=
PLAYORDER=
